<svg xmlns="http://www.w3.org/2000/svg" viewBox="0 0 900 420" fill="none" role="img" aria-labelledby="ldTitle">
<title id="ldTitle">Lepini Digital</title>
<g transform="translate(210,24) scale(1)" stroke="#B57C50" stroke-width="2.2" stroke-linecap="round" stroke-linejoin="round">
<line x1="24" y1="142" x2="72" y2="108"/>
<line x1="24" y1="142" x2="80" y2="142"/>
<line x1="72" y1="108" x2="80" y2="142"/>
<line x1="72" y1="108" x2="100" y2="118"/>
<line x1="80" y1="142" x2="100" y2="118"/>
<line x1="72" y1="108" x2="112" y2="72"/>
<line x1="112" y1="72" x2="100" y2="118"/>
<line x1="80" y1="142" x2="140" y2="146"/>
<line x1="140" y1="146" x2="100" y2="118"/>
<line x1="100" y1="118" x2="150" y2="100"/>
<line x1="112" y1="72" x2="148" y2="48"/>
<line x1="112" y1="72" x2="150" y2="100"/>
<line x1="140" y1="146" x2="150" y2="100"/>
<line x1="148" y1="48" x2="150" y2="100"/>
<line x1="140" y1="146" x2="170" y2="128"/>
<line x1="150" y1="100" x2="170" y2="128"/>
<line x1="148" y1="48" x2="186" y2="68"/>
<line x1="186" y1="68" x2="150" y2="100"/>
<line x1="150" y1="100" x2="200" y2="108"/>
<line x1="140" y1="146" x2="210" y2="148"/>
<line x1="200" y1="108" x2="170" y2="128"/>
<line x1="210" y1="148" x2="170" y2="128"/>
<line x1="186" y1="68" x2="200" y2="108"/>
<line x1="186" y1="68" x2="220" y2="42"/>
<line x1="210" y1="148" x2="200" y2="108"/>
<line x1="186" y1="68" x2="230" y2="58"/>
<line x1="200" y1="108" x2="230" y2="58"/>
<line x1="220" y1="42" x2="230" y2="58"/>
<line x1="200" y1="108" x2="250" y2="78"/>
<line x1="200" y1="108" x2="250" y2="128"/>
<line x1="210" y1="148" x2="250" y2="128"/>
<line x1="220" y1="42" x2="258" y2="18"/>
<line x1="250" y1="78" x2="230" y2="58"/>
<line x1="258" y1="18" x2="230" y2="58"/>
<line x1="250" y1="78" x2="250" y2="128"/>
<line x1="210" y1="148" x2="290" y2="146"/>
<line x1="230" y1="58" x2="280" y2="70"/>
<line x1="250" y1="78" x2="280" y2="70"/>
<line x1="258" y1="18" x2="280" y2="70"/>
<line x1="290" y1="146" x2="250" y2="128"/>
<line x1="250" y1="78" x2="300" y2="98"/>
<line x1="300" y1="98" x2="250" y2="128"/>
<line x1="258" y1="18" x2="300" y2="40"/>
<line x1="300" y1="40" x2="280" y2="70"/>
<line x1="300" y1="98" x2="280" y2="70"/>
<line x1="290" y1="146" x2="300" y2="98"/>
<line x1="338" y1="68" x2="280" y2="70"/>
<line x1="290" y1="146" x2="330" y2="128"/>
<line x1="300" y1="98" x2="330" y2="128"/>
<line x1="300" y1="40" x2="338" y2="68"/>
<line x1="338" y1="68" x2="300" y2="98"/>
<line x1="300" y1="98" x2="350" y2="118"/>
<line x1="290" y1="146" x2="370" y2="142"/>
<line x1="350" y1="118" x2="330" y2="128"/>
<line x1="338" y1="68" x2="350" y2="118"/>
<line x1="370" y1="142" x2="330" y2="128"/>
<line x1="338" y1="68" x2="378" y2="100"/>
<line x1="370" y1="142" x2="350" y2="118"/>
<line x1="378" y1="100" x2="350" y2="118"/>
<line x1="378" y1="100" x2="370" y2="142"/>
<line x1="456" y1="142" x2="370" y2="142"/>
<line x1="378" y1="100" x2="456" y2="142"/>
</g>
<text x="450" y="330" text-anchor="middle" fill="#B57C50" font-family="Avenir Next, Segoe UI, Helvetica Neue, sans-serif" font-size="64" font-weight="400" letter-spacing="6">LEPINI DIGITAL</text>
</svg>